<?xml version="1.0" encoding="UTF-8" standalone="no"?>
<svg
   viewBox="0 0 24 24"
   role="img"
   version="1.1"
   id="svg30621"
   sodipodi:docname="socials-boosty.svg"
   inkscape:version="1.2.2 (b0a8486541, 2022-12-01)"
   xmlns:inkscape="http://www.inkscape.org/namespaces/inkscape"
   xmlns:sodipodi="http://sodipodi.sourceforge.net/DTD/sodipodi-0.dtd"
   xmlns="http://www.w3.org/2000/svg"
   xmlns:svg="http://www.w3.org/2000/svg">
  <defs
     id="defs30625" />
  <sodipodi:namedview
     id="namedview30623"
     pagecolor="#ffffff"
     bordercolor="#000000"
     borderopacity="0.25"
     inkscape:showpageshadow="2"
     inkscape:pageopacity="0.0"
     inkscape:pagecheckerboard="0"
     inkscape:deskcolor="#d1d1d1"
     showgrid="false"
     inkscape:zoom="25.8125"
     inkscape:cx="9.0072639"
     inkscape:cy="16.135593"
     inkscape:window-width="1920"
     inkscape:window-height="995"
     inkscape:window-x="0"
     inkscape:window-y="0"
     inkscape:window-maximized="1"
     inkscape:current-layer="svg30621" />
  <path
     stroke="#eef2f6"
     d="m 7.5,4.8 h 5.7 c 2.8,0 4.4,1.2 4.4,3.3 0,1.5 0.0671,2.567355 -1.432897,3.067355 2,0.4 2.332897,1.832645 2.332897,3.932645 0,2.6 -1.9,4.1 -5.2,4.1 H 7.5 Z"
     id="path30615"
     sodipodi:nodetypes="csscsscc"
     style="stroke-width:1;stroke-linejoin:round;stroke-miterlimit:3.9;stroke-dasharray:none;stroke-linecap:butt" />
  <path
     stroke="#eef2f6"
     d="m 9.5211155,6.6375187 h 3.3000005 c 1.2,0 2,0.6 2,1.6 0,1 -0.8,1.6 -2,1.6 H 9.5211155 Z"
     id="path30617"
     style="stroke-width:1.2;stroke-dasharray:none" />
  <path
     stroke="#eef2f6"
     d="m 9.6439078,12.828264 h 3.7686832 c 1.487638,0 2.281045,0.667343 2.281045,1.890804 0,1.334685 -0.793407,2.002027 -2.281045,2.002027 H 9.6439078 Z"
     id="path30619"
     style="stroke-width:1.2;stroke-dasharray:none" />
</svg>
